  <svg xmlns="http://www.w3.org/2000/svg" viewBox="0 0 341 176" fill="none">
    <g filter="url(#filter0_d_3035_9086)">
      <path
        d="M305 4C322.673 4 337 18.3269 337 36V100.122C337 117.795 322.673 132.122 305 132.122H200.361C196.744 133.615 190.903 136.839 185.828 143.355C177.789 153.678 173.828 164 173.828 164C173.828 164 167.828 151.613 161.828 143.355C157.658 137.617 150.591 133.873 146.667 132.122H44C26.3269 132.122 12 117.795 12 100.122V36C12 18.3269 26.3269 4 44 4H305Z"
        fill="url(#paint0_linear_3035_9086)"
      />
    </g>
    <defs>
      <filter
        id="filter0_d_3035_9086"
        x="0"
        y="0"
        filterUnits="userSpaceOnUse"
        color-interpolation-filters="sRGB"
      >
        <feFlood flood-opacity="0" result="BackgroundImageFix" />
        <feColorMatrix
          in="SourceAlpha"
          type="matrix"
          values="0 0 0 0 0 0 0 0 0 0 0 0 0 0 0 0 0 0 127 0"
          result="hardAlpha"
        />
        <feOffset dx="-4" dy="4" />
        <feGaussianBlur stdDeviation="4" />
        <feComposite in2="hardAlpha" operator="out" />
        <feColorMatrix type="matrix" values="0 0 0 0 0 0 0 0 0 0 0 0 0 0 0 0 0 0 0.25 0" />
        <feBlend mode="normal" in2="BackgroundImageFix" result="effect1_dropShadow_3035_9086" />
        <feBlend
          mode="normal"
          in="SourceGraphic"
          in2="effect1_dropShadow_3035_9086"
          result="shape"
        />
      </filter>
      <linearGradient
        id="paint0_linear_3035_9086"
        x1="21.6517"
        y1="-29.2268"
        x2="407.417"
        y2="99.5851"
        gradientUnits="userSpaceOnUse"
      >
        <stop stop-color="#737373" />
        <stop offset="0.255809" stop-color="#222222" />
        <stop offset="0.429644" stop-color="#737373" />
        <stop offset="0.523944" stop-color="#222222" />
        <stop offset="0.784245" stop-color="#222222" />
        <stop offset="1" stop-color="#737373" />
      </linearGradient>
    </defs>
  </svg>


