<svg width="24" height="24" viewBox="0 0 24 24" fill="none" xmlns="http://www.w3.org/2000/svg">
<g clip-path="url(#clip0_503_843)">
<path d="M12.9858 0.396484C17.06 0.738578 20.5352 3.18194 22.328 6.63902L15.897 9.30302C15.2226 8.32286 14.188 7.61078 12.9858 7.35527V0.396484H12.9858ZM23.0791 8.4527C23.4338 9.56552 23.625 10.7495 23.625 11.9796C23.625 14.8349 22.5946 17.4486 20.8856 19.4718L15.9653 14.5514C16.4469 13.8114 16.7276 12.9276 16.7276 11.9796C16.7276 11.685 16.6996 11.3959 16.648 11.1167L23.079 8.4527H23.0791ZM19.4936 20.8652C17.4705 22.5728 14.8553 23.6032 12 23.6032C5.58014 23.6032 0.375 18.3994 0.375 11.9796C0.375047 5.89061 5.05659 0.896313 11.0143 0.396484V7.35527C8.87667 7.80766 7.27242 9.70652 7.27242 11.9796C7.27242 14.5891 9.38911 16.7058 12 16.7058C12.9495 16.7058 13.8319 16.4266 14.5733 15.9449L19.4936 20.8652L19.4936 20.8652ZM13.7172 12.9988C13.7172 12.3205 13.3835 11.9583 13.1036 11.7739C12.7978 11.5724 12.4355 11.4963 12.1157 11.4291C12.1156 11.4291 12.1155 11.4291 12.1153 11.429C11.4338 11.2854 11.4079 11.2187 11.4079 10.9589C11.4079 10.7106 11.679 10.5008 12 10.5008C12.2229 10.5008 12.4255 10.598 12.5287 10.7546C12.6996 11.014 13.0485 11.0858 13.3079 10.9148C13.5673 10.7439 13.6389 10.395 13.468 10.1356C13.2594 9.81906 12.9349 9.58398 12.5625 9.46441V9.31141C12.5625 9.00077 12.3107 8.74891 12 8.74891C11.6894 8.74891 11.4375 9.00077 11.4375 9.31141V9.46352C10.7662 9.67877 10.2829 10.2677 10.2829 10.959C10.2829 11.6376 10.6166 12.0001 10.8965 12.1848C11.2021 12.3864 11.5641 12.4626 11.8841 12.53C12.2041 12.5974 11.8843 12.5301 11.8844 12.5301C12.5684 12.6738 12.5922 12.7347 12.5922 12.9988C12.5922 13.2472 12.321 13.457 12 13.457C11.7772 13.457 11.5746 13.3597 11.4714 13.2031C11.3005 12.9438 10.9516 12.872 10.6922 13.0429C10.4328 13.2139 10.3612 13.5627 10.5321 13.8221C10.7407 14.1387 11.0652 14.3738 11.4375 14.4933V14.6478C11.4375 14.9584 11.6894 15.2103 12 15.2103C12.3107 15.2103 12.5625 14.9584 12.5625 14.6478V14.4943C13.2339 14.279 13.7172 13.6901 13.7172 12.9988V12.9988Z" fill="#FFE414"/>
</g>
<defs>
<clipPath id="clip0_503_843">
<rect width="24" height="24" fill="white"/>
</clipPath>
</defs>
</svg>
