<svg width="24" height="24" viewBox="0 0 24 24" fill="none" xmlns="http://www.w3.org/2000/svg">
<path d="M20.9912 10.9824C20.5526 11.3756 19.0821 12.7152 18.6178 13.1351C18.413 13.3393 18.2986 13.6126 18.299 13.8969C18.2919 14.7622 18.4497 15.9279 17.6834 16.5632L15.4429 18.6561C14.9703 19.09 14.3417 19.3295 13.6898 19.3239C13.038 19.3183 12.4139 19.0681 11.9493 18.6261C10.8403 17.7578 10.4485 16.2992 11.325 15.138C11.47 14.9486 11.5477 14.7189 11.5463 14.4833V12.108C11.5443 11.8172 11.4236 11.539 11.2105 11.3338C10.9974 11.1287 10.7091 11.0131 10.4083 11.0123C10.1318 11.0113 9.85838 10.9558 9.60483 10.8491C9.35129 10.7423 9.12295 10.5867 8.93381 10.3917L5.93164 7.19043C4.40495 8.36326 3.27866 9.95292 2.69922 11.7527C2.69926 11.757 5.5287 14.5346 5.5287 14.5346C5.78467 14.7814 6.12439 14.9304 6.48514 14.954C7.08144 14.9943 7.63997 15.2509 8.04888 15.6723C8.45778 16.0937 8.68686 16.6489 8.69024 17.2266L8.69027 18.7717C8.69109 19.122 8.62032 19.4691 8.48203 19.793C8.34373 20.1169 8.14063 20.4112 7.88438 20.6591C7.56184 20.975 7.36304 21.3896 7.32206 21.8317L7.16262 22.7391C15.1552 27.1507 24.5033 19.2025 20.9912 10.9824Z" fill="#FFE414"/>
<path d="M7.80274 18.772V17.227C7.80077 16.8664 7.65767 16.5199 7.40221 16.2571C7.14675 15.9943 6.79786 15.8347 6.42564 15.8104C5.84933 15.7715 5.30689 15.5329 4.89799 15.1384L2.44046 12.7246C2.31162 13.3301 2.24781 13.9468 2.25006 14.5649C2.24798 16.0673 2.61935 17.5481 3.33291 18.8828C4.04646 20.2175 5.08132 21.3669 6.35036 22.2344L6.47878 21.5111C6.56267 20.3898 7.84017 19.8989 7.80274 18.772Z" fill="#FFE414"/>
<path d="M13.8875 9.1081C13.9902 9.27688 14.1368 9.4168 14.3128 9.51401C14.4887 9.61122 14.6878 9.66235 14.8904 9.66235C15.093 9.66234 15.2922 9.61121 15.4681 9.51399C15.644 9.41677 15.7906 9.27685 15.8933 9.10807L18.1073 5.39745C18.4379 4.85306 18.6121 4.23328 18.6121 3.60206C18.6121 2.97085 18.4379 2.35107 18.1073 1.80667C15.5051 -2.24012 9.35253 1.19617 11.6735 5.39747L13.8875 9.1081ZM14.8926 1.62695C17.5845 1.70931 17.5839 5.491 14.8926 5.57296C14.3546 5.56799 13.8403 5.35793 13.4617 4.98845C13.0831 4.61898 12.8707 4.11997 12.8707 3.59994C12.8707 3.0799 13.0831 2.5809 13.4617 2.21143C13.8404 1.84196 14.3546 1.63191 14.8926 1.62695Z" fill="#FFE414"/>
<path d="M9.58365 9.80969C9.68948 9.91839 9.81705 10.0052 9.95863 10.0648C10.1002 10.1243 10.2528 10.1555 10.4073 10.1564C10.9424 10.1587 11.455 10.365 11.8339 10.7303C12.2127 11.0957 12.4272 11.5907 12.4308 12.108V14.4833C12.5068 15.2815 11.7062 15.7793 11.7312 16.559C11.6989 17.1652 12.1433 17.6386 12.577 18.0184C12.8753 18.3043 13.2772 18.4665 13.6972 18.4705C14.1172 18.4745 14.5223 18.32 14.8264 18.0398L17.0669 15.947C17.5972 15.4963 17.3653 14.55 17.4124 13.8969C17.4112 13.3822 17.6215 12.8882 17.9968 12.5231L20.5961 10.1649C20.0085 9.08055 19.2031 8.12028 18.2271 7.34023C17.944 7.81008 17.1434 9.15178 16.85 9.64278C16.6492 9.97256 16.3628 10.2459 16.0191 10.4359C15.6755 10.6258 15.2865 10.7257 14.8906 10.7257C14.4947 10.7257 14.1057 10.6258 13.762 10.4359C13.4184 10.2459 13.132 9.9725 12.9312 9.64271C12.9312 9.64278 10.4948 5.55662 10.3896 5.27734C9.05473 5.48818 7.78112 5.9695 6.65234 6.68969C7.02384 7.08403 9.1608 9.3617 9.58365 9.80969Z" fill="#FFE414"/>
<path d="M14.8917 4.71649C15.195 4.7119 15.4844 4.59219 15.6972 4.3832C15.9101 4.17421 16.0294 3.8927 16.0294 3.59944C16.0294 3.30618 15.9101 3.02468 15.6972 2.81569C15.4844 2.60671 15.195 2.48701 14.8916 2.48242C14.5883 2.48702 14.2989 2.60673 14.0861 2.81572C13.8732 3.02471 13.7539 3.30621 13.7539 3.59948C13.7539 3.89274 13.8732 4.17424 14.0861 4.38322C14.2989 4.5922 14.5883 4.71191 14.8917 4.71649Z" fill="#FFE414"/>
</svg>
