<svg width="24" height="24" viewBox="0 0 24 24" fill="none" xmlns="http://www.w3.org/2000/svg">
<path d="M18.6729 4.91144C17.36 2.51239 14.788 0.984375 12 0.984375C8.45508 0.984375 5.38092 3.44934 4.60309 6.81335C2.02002 7.08545 0 9.25543 0 11.8845C0 14.6964 2.31207 16.9843 5.15204 16.9843H5.26099C5.12695 16.3894 5.20898 15.7463 5.53308 15.1844L6.34204 13.7844C6.78699 13.0133 7.617 12.5343 8.508 12.5343C8.62903 12.5343 8.75006 12.5435 8.86798 12.5603C9.23895 11.6303 10.149 10.9843 11.191 10.9843H12.808C13.8499 10.9843 14.7599 11.6294 15.1309 12.5603C15.2499 12.5435 15.3701 12.5343 15.4911 12.5343C16.3821 12.5343 17.2119 13.0133 17.657 13.7844L18.466 15.1844C18.778 15.7244 18.861 16.3383 18.748 16.9144C21.713 16.4894 24 13.9664 24 10.9173C24 7.85138 21.6931 5.2923 18.6729 4.91144Z" fill="#FFE414"/>
<path d="M15.7042 18.4534C15.7244 18.2985 15.7513 18.1443 15.7513 17.9844C15.7513 17.8233 15.7233 17.6704 15.7042 17.5153L16.6053 16.8334C16.8063 16.6815 16.8624 16.4033 16.7362 16.1843L15.9273 14.7843C15.8013 14.5664 15.5323 14.4754 15.3003 14.5734L14.2634 15.0104C14.0103 14.8174 13.7413 14.6473 13.4443 14.5234L13.3063 13.4224C13.2742 13.1724 13.0622 12.9844 12.8103 12.9844H11.1933C10.9413 12.9844 10.7283 13.1724 10.6972 13.4224L10.5593 14.5234C10.2623 14.6473 9.99226 14.8184 9.74031 15.0104L8.70338 14.5734C8.47029 14.4754 8.20131 14.5653 8.07533 14.7843L7.26729 16.1843C7.14131 16.4024 7.19734 16.6804 7.39821 16.8334L8.29927 17.5153C8.27931 17.6704 8.25129 17.8233 8.25129 17.9844C8.25129 18.1454 8.27931 18.2985 8.29835 18.4534L7.39729 19.1354C7.19624 19.2874 7.14021 19.5654 7.26637 19.7844L8.07533 21.1844C8.20131 21.4025 8.47029 21.4933 8.70228 21.3953L9.73921 20.9573C9.99226 21.1503 10.2612 21.3204 10.5582 21.4444L10.6963 22.5454C10.7283 22.7964 10.9404 22.9843 11.1923 22.9843H12.8093C13.0613 22.9843 13.2742 22.7964 13.3054 22.5463L13.4432 21.4453C13.7402 21.3214 14.0103 21.1503 14.2623 20.9584L15.2992 21.3953C15.5314 21.4933 15.8004 21.4034 15.9263 21.1844L16.7353 19.7834C16.8613 19.5654 16.8052 19.2874 16.6044 19.1343L15.7042 18.4534ZM12.0013 19.9843C10.8963 19.9843 10.0012 19.0893 10.0012 17.9844C10.0012 16.8794 10.8963 15.9844 12.0013 15.9844C13.1063 15.9844 14.0014 16.8794 14.0014 17.9844C14.0014 19.0893 13.1063 19.9843 12.0013 19.9843Z" fill="#FFE414"/>
</svg>
