<svg width="24" height="24" viewBox="0 0 24 24" fill="none" xmlns="http://www.w3.org/2000/svg">
<g clip-path="url(#clip0_503_840)">
<path d="M23.9372 9.20529C23.7792 8.71931 23.3482 8.37525 22.8402 8.32929L15.9121 7.70032L13.1741 1.29005C12.972 0.819097 12.512 0.515137 12 0.515137C11.4881 0.515137 11.0279 0.819097 10.827 1.29005L8.08902 7.70032L1.15982 8.32929C0.651881 8.37617 0.221759 8.72023 0.0628208 9.20529C-0.0952019 9.69125 0.0507355 10.2243 0.434897 10.5612L5.67198 15.1534L4.12783 21.9544C4.01485 22.4545 4.20895 22.9716 4.62387 23.2715C4.8469 23.4335 5.10893 23.5145 5.37187 23.5145C5.59783 23.5145 5.82396 23.4544 6.02593 23.3336L12 19.7615L17.973 23.3336C18.4112 23.5954 18.9622 23.5714 19.3762 23.2715C19.7911 22.9716 19.9852 22.4545 19.8722 21.9544L18.3281 15.1534L23.5652 10.5612C23.9491 10.2243 24.0953 9.69235 23.9372 9.20529Z" fill="#FFE414"/>
</g>
<defs>
<clipPath id="clip0_503_840">
<rect width="24" height="24" fill="white"/>
</clipPath>
</defs>
</svg>
