<svg width="24" height="22" viewBox="0 0 24 22" fill="none" xmlns="http://www.w3.org/2000/svg">
<path d="M0.558278 15.7107C0.238478 16.2676 0.0504879 16.8909 0.00884366 17.5325C-0.0328006 18.1741 0.0730166 18.8166 0.318113 19.4106C0.56321 20.0045 0.941019 20.5338 1.42233 20.9577C1.90364 21.3815 2.47555 21.6885 3.09384 21.8549C3.71213 22.0213 4.36024 22.0426 4.98804 21.9172C5.61585 21.7918 6.20654 21.5231 6.71443 21.1318C7.22233 20.7405 7.63382 20.2371 7.91709 19.6606C8.20036 19.0841 8.34782 18.4498 8.34807 17.8069C8.34843 16.8837 8.04539 15.9862 7.48598 15.2536C6.92657 14.5211 6.14207 13.9945 5.25424 13.7556C4.3664 13.5167 3.42488 13.5788 2.57578 13.9323C1.72668 14.2858 1.01749 14.9109 0.558278 15.7107Z" fill="#222222"/>
<path d="M6.8247 4.80957L2.12891 12.9849C2.87363 12.6659 3.68203 12.5254 4.49014 12.5745C5.29826 12.6236 6.08392 12.8609 6.78496 13.2676C7.48601 13.6743 8.0832 14.2393 8.5293 14.9179C8.9754 15.5965 9.25816 16.37 9.35521 17.1773L11.4005 13.6137C7.51863 6.87436 6.95514 6.22977 6.8247 4.80957Z" fill="#222222"/>
<path d="M23.4418 15.7105C23.1757 15.2598 15.5477 1.94351 15.3964 1.74961C14.7684 0.869913 13.8261 0.268249 12.7665 0.0705411C11.707 -0.127167 10.6123 0.0944032 9.71173 0.688881C8.81113 1.28336 8.17434 2.20467 7.93464 3.25999C7.69495 4.31532 7.87092 5.42286 8.42573 6.35083C8.37356 6.35083 8.16486 5.90014 16.2103 19.903C16.4844 20.3799 16.8493 20.7979 17.2842 21.1332C17.7191 21.4685 18.2155 21.7144 18.7451 21.857C19.2746 21.9996 19.827 22.036 20.3705 21.9642C20.9141 21.8924 21.4383 21.7137 21.9131 21.4384C22.3879 21.1632 22.8041 20.7966 23.1379 20.3598C23.4717 19.923 23.7166 19.4244 23.8585 18.8925C24.0005 18.3606 24.0368 17.8058 23.9653 17.2599C23.8938 16.7139 23.7159 16.1874 23.4418 15.7105Z" fill="#222222"/>
</svg>
