<svg width="24" height="24" viewBox="0 0 24 24" fill="none" xmlns="http://www.w3.org/2000/svg">
<path d="M21.8571 6.07674C21.8366 6.07674 19.7631 6.03488 17.9965 4.7093C16.455 3.55814 15.923 1.05349 15.8412 0.125582V0H12.0897V16.5558C12.0897 18.5442 10.5073 20.1628 8.5634 20.1628C6.61948 20.1628 5.03707 18.5442 5.03707 16.5558C5.03707 14.5674 6.61948 12.9488 8.5634 12.9488H9.75022V9.11163H8.5634C4.55279 9.11163 1.28564 12.4535 1.28564 16.5558C1.28564 20.6581 4.55279 24 8.5634 24C12.574 24 15.8412 20.6581 15.8412 16.5558V7.84884C18.5626 9.85116 21.5092 9.91395 21.8503 9.91395V6.07674H21.8571Z" fill="#222222"/>
</svg>
