<svg width="38" height="46" viewBox="0 0 38 46" fill="none" xmlns="http://www.w3.org/2000/svg">
<path d="M16.7627 43C16.7627 44.3854 17.8858 45.5085 19.2712 45.5085C20.6566 45.5085 21.7796 44.3854 21.7796 43L16.7627 43ZM21.0449 1.22625C20.0653 0.246638 18.477 0.246638 17.4974 1.22625L1.53369 17.19C0.554073 18.1696 0.554073 19.7579 1.53369 20.7375C2.5133 21.7171 4.10157 21.7171 5.08119 20.7375L19.2712 6.5475L33.4612 20.7375C34.4408 21.7171 36.0291 21.7171 37.0087 20.7375C37.9883 19.7579 37.9883 18.1696 37.0087 17.19L21.0449 1.22625ZM19.2712 43L21.7796 43L21.7796 3L19.2712 3L16.7627 3L16.7627 43L19.2712 43Z" fill="#222222"/>
</svg>
