<svg width="12" height="13" viewBox="0 0 12 13" fill="none" xmlns="http://www.w3.org/2000/svg">
<path d="M9.5 1.5H9V1C9 0.867392 8.94732 0.740215 8.85355 0.646447C8.75979 0.552678 8.63261 0.5 8.5 0.5C8.36739 0.5 8.24021 0.552678 8.14645 0.646447C8.05268 0.740215 8 0.867392 8 1V1.5H4V1C4 0.867392 3.94732 0.740215 3.85355 0.646447C3.75979 0.552678 3.63261 0.5 3.5 0.5C3.36739 0.5 3.24021 0.552678 3.14645 0.646447C3.05268 0.740215 3 0.867392 3 1V1.5H2.5C1.8372 1.50079 1.20178 1.76444 0.73311 2.23311C0.264441 2.70178 0.000793929 3.3372 0 4L0 10C0.000793929 10.6628 0.264441 11.2982 0.73311 11.7669C1.20178 12.2356 1.8372 12.4992 2.5 12.5H9.5C10.1628 12.4992 10.7982 12.2356 11.2669 11.7669C11.7356 11.2982 11.9992 10.6628 12 10V4C11.9992 3.3372 11.7356 2.70178 11.2669 2.23311C10.7982 1.76444 10.1628 1.50079 9.5 1.5ZM1 4C1 3.60218 1.15804 3.22064 1.43934 2.93934C1.72064 2.65804 2.10218 2.5 2.5 2.5H9.5C9.89782 2.5 10.2794 2.65804 10.5607 2.93934C10.842 3.22064 11 3.60218 11 4V4.5H1V4ZM9.5 11.5H2.5C2.10218 11.5 1.72064 11.342 1.43934 11.0607C1.15804 10.7794 1 10.3978 1 10V5.5H11V10C11 10.3978 10.842 10.7794 10.5607 11.0607C10.2794 11.342 9.89782 11.5 9.5 11.5Z" fill="#686868"/>
</svg>
