<svg width="32" height="32" viewBox="0 0 32 32" fill="none" xmlns="http://www.w3.org/2000/svg">
<g clip-path="url(#clip0_3035_9680)">
<path d="M13.1873 9.6875C5.95019 9.6875 6.58184e-05 14.6642 6.58184e-05 20.7816C6.58184e-05 23.2269 0.948566 25.7121 2.688 27.6383L0.231691 30.4452C-0.00999668 30.7217 -0.0686217 31.1145 0.0843158 31.4496C0.236316 31.7846 0.569566 31.9998 0.937566 31.9998H14.1248C19.4682 31.9998 26.3744 27.3986 26.3744 20.7816C26.3744 14.6642 20.4243 9.6875 13.1873 9.6875ZM7.49988 22.5C6.46625 22.5 5.62494 21.6586 5.62494 20.6251C5.62494 19.5914 6.46632 18.7501 7.49988 18.7501C8.53344 18.7501 9.37481 19.5915 9.37481 20.6251C9.37488 21.6586 8.5335 22.5 7.49988 22.5ZM13.1873 22.5C12.1536 22.5 11.3123 21.6586 11.3123 20.6251C11.3123 19.5914 12.1537 18.7501 13.1873 18.7501C14.2208 18.7501 15.0622 19.5915 15.0622 20.6251C15.0622 21.6586 14.2209 22.5 13.1873 22.5ZM18.8746 22.5C17.841 22.5 16.9997 21.6586 16.9997 20.6251C16.9997 19.5914 17.8411 18.7501 18.8746 18.7501C19.9082 18.7501 20.7496 19.5915 20.7496 20.6251C20.7496 21.6586 19.9083 22.5 18.8746 22.5Z" fill="#222222"/>
<path d="M31.7755 19.0764L29.5683 16.5011C31.1438 14.7232 32.0017 12.5552 32.0017 10.3123C32.0016 4.62606 26.5343 0 19.8144 0C13.7379 0 8.57532 3.78681 7.66376 8.71562C9.35926 8.1395 11.2607 7.812 13.1896 7.812C21.3992 7.812 28.1441 13.5461 28.2426 20.6245H31.0642C31.865 20.6246 32.2951 19.6816 31.7755 19.0764Z" fill="#222222"/>
</g>
<defs>
<clipPath id="clip0_3035_9680">
<rect width="32" height="32" fill="white"/>
</clipPath>
</defs>
</svg>
