<svg width="21" height="20" viewBox="0 0 21 20" fill="none" xmlns="http://www.w3.org/2000/svg">
<g clip-path="url(#clip0_5045_829)">
<path d="M7.95669 2.11351C7.64735 1.34013 6.89833 0.833008 6.0654 0.833008H3.26376C2.19797 0.833008 1.33398 1.69681 1.33398 2.76262C1.33398 11.822 8.67811 19.1663 17.7373 19.1663C18.8031 19.1663 19.6668 18.3023 19.6668 17.2364L19.6673 14.4343C19.6673 13.6013 19.1603 12.8524 18.387 12.5431L15.7018 11.4693C15.0071 11.1915 14.2162 11.3165 13.6414 11.7955L12.9484 12.3735C12.139 13.048 10.9482 12.9944 10.2032 12.2494L8.25181 10.2961C7.50685 9.55115 7.4518 8.36123 8.12625 7.55186L8.70413 6.85887C9.18311 6.28408 9.30928 5.4929 9.03141 4.7982L7.95669 2.11351Z" stroke="#222222" stroke-width="1.66667" stroke-linecap="round" stroke-linejoin="round"/>
</g>
<defs>
<clipPath id="clip0_5045_829">
<rect width="20" height="20" fill="white" transform="translate(0.5)"/>
</clipPath>
</defs>
</svg>
