<svg width="56" height="57" viewBox="0 0 56 57" fill="none" xmlns="http://www.w3.org/2000/svg">
<path d="M11.2703 13.482C12.0473 13.482 12.6773 12.852 12.6773 12.075C12.6773 11.2979 12.0473 10.668 11.2703 10.668C10.4932 10.668 9.86328 11.2979 9.86328 12.075C9.86328 12.852 10.4932 13.482 11.2703 13.482Z" fill="url(#paint0_linear_3035_9004)"/>
<path d="M16.2273 13.482C17.0044 13.482 17.6343 12.852 17.6343 12.075C17.6343 11.2979 17.0044 10.668 16.2273 10.668C15.4502 10.668 14.8203 11.2979 14.8203 12.075C14.8203 12.852 15.4502 13.482 16.2273 13.482Z" fill="url(#paint1_linear_3035_9004)"/>
<path d="M21.1843 13.482C21.9614 13.482 22.5913 12.852 22.5913 12.075C22.5913 11.2979 21.9614 10.668 21.1843 10.668C20.4073 10.668 19.7773 11.2979 19.7773 12.075C19.7773 12.852 20.4073 13.482 21.1843 13.482Z" fill="url(#paint2_linear_3035_9004)"/>
<path d="M35.1243 35.8322L39.7146 50.9207C40.1591 52.3819 42.2171 52.4134 42.7053 50.9644L44.8543 44.5874C45.0118 44.1219 45.3758 43.7579 45.8413 43.6004L52.2183 41.4514C53.6656 40.9632 53.6358 38.9052 52.1746 38.4607L37.0861 33.8704C35.8838 33.5064 34.7603 34.6299 35.1243 35.8322Z" fill="url(#paint3_linear_3035_9004)"/>
<path d="M32.6171 36.5978C32.2251 35.3133 32.4596 33.9571 33.2576 32.8808C34.0486 31.8151 35.3051 31.1781 36.6228 31.1781C37.0376 31.1781 37.4506 31.2393 37.8531 31.3618L51.4191 35.4866V11.4748C51.4191 7.88734 48.4966 4.96484 44.9091 4.96484H9.22484C5.63734 4.96484 2.71484 7.88734 2.71484 11.4748V40.6123C2.71484 44.2173 5.63734 47.1398 9.24234 47.1398H35.8213L32.6171 36.5978ZM5.86484 16.0598V11.4766C5.86484 9.62334 7.37159 8.11659 9.22484 8.11659H44.9073C46.7606 8.11659 48.2673 9.62334 48.2673 11.4766V16.0598H27.0661H5.86484Z" fill="url(#paint4_linear_3035_9004)"/>
<defs>
<linearGradient id="paint0_linear_3035_9004" x1="9.94685" y1="10.0836" x2="16.7012" y2="9.78426" gradientUnits="userSpaceOnUse">
<stop stop-color="#737373"/>
<stop offset="0.255809" stop-color="#222222"/>
<stop offset="0.429644" stop-color="#737373"/>
<stop offset="0.523944" stop-color="#222222"/>
<stop offset="0.784245" stop-color="#222222"/>
<stop offset="1" stop-color="#737373"/>
</linearGradient>
<linearGradient id="paint1_linear_3035_9004" x1="14.9039" y1="10.0836" x2="21.6582" y2="9.78426" gradientUnits="userSpaceOnUse">
<stop stop-color="#737373"/>
<stop offset="0.255809" stop-color="#222222"/>
<stop offset="0.429644" stop-color="#737373"/>
<stop offset="0.523944" stop-color="#222222"/>
<stop offset="0.784245" stop-color="#222222"/>
<stop offset="1" stop-color="#737373"/>
</linearGradient>
<linearGradient id="paint2_linear_3035_9004" x1="19.8609" y1="10.0836" x2="26.6153" y2="9.78426" gradientUnits="userSpaceOnUse">
<stop stop-color="#737373"/>
<stop offset="0.255809" stop-color="#222222"/>
<stop offset="0.429644" stop-color="#737373"/>
<stop offset="0.523944" stop-color="#222222"/>
<stop offset="0.784245" stop-color="#222222"/>
<stop offset="1" stop-color="#737373"/>
</linearGradient>
<linearGradient id="paint3_linear_3035_9004" x1="35.5962" y1="30.0143" x2="79.3594" y2="28.0749" gradientUnits="userSpaceOnUse">
<stop stop-color="#737373"/>
<stop offset="0.255809" stop-color="#222222"/>
<stop offset="0.429644" stop-color="#737373"/>
<stop offset="0.523944" stop-color="#222222"/>
<stop offset="0.784245" stop-color="#222222"/>
<stop offset="1" stop-color="#737373"/>
</linearGradient>
<linearGradient id="paint4_linear_3035_9004" x1="4.16124" y1="-3.79353" x2="120.988" y2="-9.77249" gradientUnits="userSpaceOnUse">
<stop stop-color="#737373"/>
<stop offset="0.255809" stop-color="#222222"/>
<stop offset="0.429644" stop-color="#737373"/>
<stop offset="0.523944" stop-color="#222222"/>
<stop offset="0.784245" stop-color="#222222"/>
<stop offset="1" stop-color="#737373"/>
</linearGradient>
</defs>
</svg>
