<svg width="73" height="72" viewBox="0 0 73 72" fill="none" xmlns="http://www.w3.org/2000/svg">
<g clip-path="url(#clip0_3035_8831)">
<path d="M59.5 20.4165C59.5 20.8824 59.1222 21.2602 58.6563 21.2602H57.3571C50.2673 21.2602 44.5 26.9231 44.5 33.8847V38.8985C44.5 39.5451 45.1974 39.9514 45.7599 39.6325L49.4776 37.5245C49.8785 37.2972 50.3877 37.4336 50.6212 37.831L51.5003 39.3266C51.9359 40.0679 53.0714 39.7589 53.0714 38.8991V33.8847C53.0714 31.5649 54.9946 29.6765 57.3571 29.6765H58.6563C59.1222 29.6765 59.5 30.0543 59.5 30.5203V33.2784C59.5 33.9682 60.2829 34.3665 60.8405 33.9604L71.5636 26.1504C72.0263 25.8134 72.0263 25.1233 71.5636 24.7863L60.8405 16.9763C60.2829 16.5702 59.5 16.9685 59.5 17.6584V20.4165Z" fill="#B5B5B5"/>
<path d="M37.1909 0.98553C36.8549 0.506315 36.1451 0.506316 35.8091 0.985531L28.431 11.5101C28.039 12.0693 28.439 12.8382 29.1219 12.8382H31.6554C32.1214 12.8382 32.4991 13.2159 32.4992 13.6819L32.5005 33.1563C32.5006 33.6223 32.8783 34 33.3443 34H39.6571C40.1231 34 40.5009 33.6222 40.5009 33.1562V13.6819C40.5009 13.2159 40.8786 12.8382 41.3446 12.8382H43.8781C44.561 12.8382 44.961 12.0693 44.569 11.5101L37.1909 0.98553Z" fill="#B5B5B5"/>
<path d="M13.5 30.5203C13.5 30.0543 13.8778 29.6765 14.3438 29.6765H15.6429C18.0054 29.6765 19.9286 31.5649 19.9286 33.8847V38.8991C19.9286 39.7589 21.0641 40.0679 21.4997 39.3266L22.3788 37.831C22.6123 37.4336 23.1215 37.2972 23.5224 37.5245L27.2401 39.6325C27.8026 39.9514 28.5 39.5451 28.5 38.8985V33.8847C28.5 26.9231 22.7327 21.2602 15.6429 21.2602H14.3438C13.8778 21.2602 13.5 20.8824 13.5 20.4165V17.6584C13.5 16.9685 12.7171 16.5702 12.1595 16.9763L1.43642 24.7863C0.973741 25.1233 0.973742 25.8134 1.43642 26.1504L12.1595 33.9604C12.7171 34.3665 13.5 33.9682 13.5 33.2784V30.5203Z" fill="#B5B5B5"/>
<path d="M36.5 58C38.1569 58 39.5 56.6569 39.5 55C39.5 53.3431 38.1569 52 36.5 52C34.8431 52 33.5 53.3431 33.5 55C33.5 56.6569 34.8431 58 36.5 58Z" fill="#B5B5B5"/>
<path d="M50.0537 44.239C49.5869 43.4409 48.5648 43.1671 47.7615 43.6249L45.8301 44.7257C45.2166 45.0753 44.4562 44.997 43.8771 44.5928C43.249 44.1544 42.5876 43.7752 41.8976 43.4577C41.2465 43.1582 40.7887 42.5297 40.7887 41.8129V39.6875C40.7887 38.7555 40.0332 38 39.1012 38H33.8988C32.9668 38 32.2113 38.7555 32.2113 39.6875V41.8124C32.2113 42.5294 31.7531 43.158 31.1017 43.4575C30.4122 43.7745 29.7519 44.153 29.1256 44.5907C28.546 44.9956 27.7845 45.0749 27.1702 44.7249L25.2383 43.6245C24.4351 43.1669 23.4132 43.4407 22.9464 44.2387L20.3617 48.6577C19.8874 49.4686 20.1667 50.5108 20.9829 50.9759L22.8267 52.0265C23.4514 52.3824 23.769 53.0939 23.6943 53.809C23.6559 54.1774 23.6338 54.5503 23.6338 54.9295C23.6338 55.3081 23.6558 55.6811 23.6942 56.0493C23.7687 56.7648 23.4512 57.4767 22.8262 57.8328L20.9829 58.883C20.1667 59.3481 19.8874 60.3903 20.3617 61.2012L22.9462 65.6199C23.4131 66.418 24.4352 66.6918 25.2385 66.234L27.1697 65.1333C27.7831 64.7836 28.5435 64.8619 29.1226 65.2661C29.7508 65.7045 30.4122 66.0837 31.1023 66.4012C31.7535 66.7008 32.2113 67.3293 32.2113 68.046V70.3125C32.2113 71.2445 32.9668 72 33.8988 72H39.1012C40.0332 72 40.7887 71.2445 40.7887 70.3125V68.0466C40.7887 67.3296 41.2469 66.7009 41.8983 66.4014C42.5878 66.0844 43.2481 65.7059 43.8744 65.2683C44.454 64.8633 45.2155 64.784 45.8298 65.134L47.7617 66.2345C48.5649 66.6921 49.5868 66.4182 50.0536 65.6202L52.6383 61.2012C53.1126 60.3903 52.8333 59.3481 52.0171 58.883L50.1733 57.8324C49.5486 57.4765 49.231 56.7651 49.3057 56.0499C49.3441 55.6815 49.3662 55.3086 49.3662 54.9295C49.3662 54.5508 49.3442 54.1778 49.3058 53.8096C49.2313 53.0942 49.5488 52.3823 50.1738 52.0262L52.0171 50.9759C52.8333 50.5108 53.1126 49.4686 52.6383 48.6577L50.0537 44.239ZM36.5 61.278C32.9526 61.278 30.0669 58.4302 30.0669 54.9295C30.0669 51.4287 32.9526 48.5809 36.5 48.5809C40.0474 48.5809 42.9331 51.4287 42.9331 54.9295C42.9331 58.4302 40.0474 61.278 36.5 61.278Z" fill="#B5B5B5"/>
</g>
<defs>
<clipPath id="clip0_3035_8831">
<rect width="72" height="72" fill="white" transform="translate(0.5)"/>
</clipPath>
</defs>
</svg>
