<svg width="20" height="21" viewBox="0 0 20 21" fill="none" xmlns="http://www.w3.org/2000/svg">
<g clip-path="url(#clip0_5045_740)">
<path fill-rule="evenodd" clip-rule="evenodd" d="M14.9722 0.565684C14.1681 0.499991 13.1677 0.5 11.8917 0.5H8.10831C6.83229 0.5 5.83189 0.499991 5.02785 0.565684C4.2091 0.632577 3.53273 0.771051 2.92051 1.08299C1.91406 1.59579 1.09579 2.41406 0.582986 3.42051C0.271051 4.03273 0.132577 4.70911 0.0656837 5.52785C-9.25951e-06 6.33189 0 7.33229 0 8.60831V12.5728C0 14.8959 1.88317 16.7791 4.20619 16.7791H4.76596C4.99712 16.7791 5.15519 17.0125 5.06934 17.2272C4.43058 18.8241 6.26967 20.2677 7.66921 19.2681L10.0978 17.5334L10.1435 17.5008C10.803 17.0362 11.5887 16.7843 12.3954 16.7792L12.4515 16.7791H13.0987C14.5392 16.7792 15.418 16.7794 16.1562 16.563C17.9043 16.0504 19.2713 14.6833 19.7839 12.9352C20.0004 12.1971 20.0002 11.3184 20 9.87785V8.60829C20 7.3323 20 6.33188 19.9343 5.52785C19.8674 4.7091 19.7289 4.03273 19.417 3.42051C18.9042 2.41406 18.0859 1.59579 17.0794 1.08299C16.4672 0.771051 15.7909 0.632577 14.9722 0.565684ZM3.55399 2.32625C3.93671 2.13125 4.40902 2.01624 5.14147 1.9564C5.88206 1.89589 6.82557 1.89535 8.13953 1.89535H11.8605C13.1744 1.89535 14.1179 1.89589 14.8585 1.9564C15.591 2.01624 16.0632 2.13125 16.446 2.32625C17.1899 2.70528 17.7947 3.31009 18.1738 4.05399C18.3687 4.43671 18.4837 4.90902 18.5436 5.64147C18.6041 6.38206 18.6046 7.32557 18.6046 8.63953V9.74111C18.6046 11.3615 18.5976 12.0221 18.4449 12.5426C18.066 13.8347 17.0556 14.8451 15.7635 15.224C15.2431 15.3766 14.5824 15.3837 12.962 15.3837H12.4515L12.3865 15.3838C11.2951 15.3908 10.2319 15.7315 9.33972 16.3602L6.85818 18.1326C6.59264 18.3223 6.24369 18.0484 6.36489 17.7454C6.81736 16.6142 5.98429 15.3837 4.76596 15.3837H4.20619C2.6538 15.3837 1.39535 14.1253 1.39535 12.5728V8.63953C1.39535 7.32557 1.39589 6.38206 1.4564 5.64147C1.51624 4.90902 1.63125 4.43671 1.82625 4.05399C2.20528 3.31009 2.81009 2.70528 3.55399 2.32625Z" fill="white"/>
<path d="M7.20812 8.63922C7.20812 9.15298 6.79164 9.56945 6.27789 9.56945C5.76414 9.56945 5.34766 9.15298 5.34766 8.63922C5.34766 8.12547 5.76414 7.70898 6.27789 7.70898C6.79164 7.70898 7.20812 8.12547 7.20812 8.63922Z" fill="white"/>
<path d="M10.9308 8.63922C10.9308 9.15298 10.5143 9.56945 10.0005 9.56945C9.48678 9.56945 9.07031 9.15298 9.07031 8.63922C9.07031 8.12547 9.48678 7.70898 10.0005 7.70898C10.5143 7.70898 10.9308 8.12547 10.9308 8.63922Z" fill="white"/>
<path d="M14.6515 8.63922C14.6515 9.15298 14.235 9.56945 13.7212 9.56945C13.2075 9.56945 12.791 9.15298 12.791 8.63922C12.791 8.12547 13.2075 7.70898 13.7212 7.70898C14.235 7.70898 14.6515 8.12547 14.6515 8.63922Z" fill="white"/>
</g>
<defs>
<clipPath id="clip0_5045_740">
<rect width="20" height="20" fill="white" transform="translate(0 0.5)"/>
</clipPath>
</defs>
</svg>
