<svg width="20" height="19" viewBox="0 0 20 19" fill="none" xmlns="http://www.w3.org/2000/svg">
<g filter="url(#filter0_d_5213_926)">
<path d="M8.55339 17.2969C8.55339 17.6852 8.2413 18 7.85622 18H4.78868C3.25096 18 2 16.7384 2 15.1875V2.8125C2 1.26164 3.25096 0 4.78868 0H13.36C14.8976 0 16.1487 1.26164 16.1487 2.8125V9.52734C16.1487 9.91571 15.8365 10.2305 15.4516 10.2305C15.0665 10.2305 14.7544 9.91571 14.7544 9.52734V2.8125C14.7544 2.03714 14.1288 1.40625 13.36 1.40625H4.78868C4.01988 1.40625 3.39434 2.03714 3.39434 2.8125V15.1875C3.39434 15.9629 4.01988 16.5938 4.78868 16.5938H7.85622C8.2413 16.5938 8.55339 16.9085 8.55339 17.2969ZM12.6629 4.21875H5.48203C5.09696 4.21875 4.78486 4.53351 4.78486 4.92188C4.78486 5.31024 5.09696 5.625 5.48203 5.625H12.6629C13.0478 5.625 13.36 5.31024 13.36 4.92188C13.36 4.53351 13.0478 4.21875 12.6629 4.21875ZM13.36 7.73438C13.36 7.34601 13.0478 7.03125 12.6629 7.03125H5.48203C5.09696 7.03125 4.78486 7.34601 4.78486 7.73438C4.78486 8.12274 5.09696 8.4375 5.48203 8.4375H12.6629C13.0478 8.4375 13.36 8.12274 13.36 7.73438ZM5.48203 9.84375C5.09696 9.84375 4.78486 10.1585 4.78486 10.5469C4.78486 10.9352 5.09696 11.25 5.48203 11.25H9.14598C9.53106 11.25 9.84315 10.9352 9.84315 10.5469C9.84315 10.1585 9.53106 9.84375 9.14598 9.84375H5.48203ZM17.8733 14.994C17.8488 15.0293 17.7647 15.1492 17.7126 15.2155C17.4791 15.5117 16.9325 16.2051 16.172 16.8172C15.1969 17.602 14.1935 18 13.1896 18C12.1856 18 11.1822 17.602 10.2071 16.8172C9.44664 16.2051 8.90007 15.5116 8.66668 15.2155C8.61439 15.1492 8.53038 15.0292 8.50587 14.994C8.33689 14.7515 8.33689 14.4281 8.50587 14.1855C8.53038 14.1504 8.61439 14.0304 8.66668 13.964C8.90007 13.668 9.44664 12.9746 10.2071 12.3625C11.1822 11.5777 12.1856 11.1797 13.1896 11.1797C14.1935 11.1797 15.1969 11.5777 16.172 12.3625C16.9325 12.9746 17.4791 13.6681 17.7125 13.9642C17.7647 14.0305 17.8488 14.1505 17.8733 14.1857C18.0422 14.4282 18.0422 14.7515 17.8733 14.994ZM16.419 14.5898C15.3105 13.2598 14.2251 12.5859 13.1896 12.5859C12.1542 12.5859 11.0686 13.2597 9.96012 14.5898C11.0686 15.9199 12.154 16.5938 13.1896 16.5938C14.2251 16.5938 15.3105 15.92 16.419 14.5898ZM13.2244 13.2539C12.4928 13.2539 11.8998 13.852 11.8998 14.5898C11.8998 15.3277 12.4928 15.9258 13.2244 15.9258C13.956 15.9258 14.549 15.3277 14.549 14.5898C14.549 13.852 13.956 13.2539 13.2244 13.2539Z" fill="#222222"/>
</g>
<defs>
<filter id="filter0_d_5213_926" x="-2" y="0" width="24" height="26" filterUnits="userSpaceOnUse" color-interpolation-filters="sRGB">
<feFlood flood-opacity="0" result="BackgroundImageFix"/>
<feColorMatrix in="SourceAlpha" type="matrix" values="0 0 0 0 0 0 0 0 0 0 0 0 0 0 0 0 0 0 127 0" result="hardAlpha"/>
<feOffset dy="4"/>
<feGaussianBlur stdDeviation="2"/>
<feComposite in2="hardAlpha" operator="out"/>
<feColorMatrix type="matrix" values="0 0 0 0 0 0 0 0 0 0 0 0 0 0 0 0 0 0 0.25 0"/>
<feBlend mode="normal" in2="BackgroundImageFix" result="effect1_dropShadow_5213_926"/>
<feBlend mode="normal" in="SourceGraphic" in2="effect1_dropShadow_5213_926" result="shape"/>
</filter>
</defs>
</svg>
