<svg width="12" height="13" viewBox="0 0 12 13" fill="none" xmlns="http://www.w3.org/2000/svg">
<path d="M5.03906 12.0312C5.03906 12.2902 4.82922 12.5 4.57031 12.5H2.50781C1.47391 12.5 0.632812 11.6589 0.632812 10.625V2.375C0.632812 1.34109 1.47391 0.5 2.50781 0.5H8.27087C9.30469 0.5 10.1459 1.34109 10.1459 2.375V6.85156C10.1459 7.11047 9.93594 7.32031 9.67712 7.32031C9.41821 7.32031 9.20837 7.11047 9.20837 6.85156V2.375C9.20837 1.85809 8.78778 1.4375 8.27087 1.4375H2.50781C1.99091 1.4375 1.57031 1.85809 1.57031 2.375V10.625C1.57031 11.1419 1.99091 11.5625 2.50781 11.5625H4.57031C4.82922 11.5625 5.03906 11.7723 5.03906 12.0312ZM7.80212 3.3125H2.974C2.71509 3.3125 2.50525 3.52234 2.50525 3.78125C2.50525 4.04016 2.71509 4.25 2.974 4.25H7.80212C8.06094 4.25 8.27087 4.04016 8.27087 3.78125C8.27087 3.52234 8.06094 3.3125 7.80212 3.3125ZM8.27087 5.65625C8.27087 5.39734 8.06094 5.1875 7.80212 5.1875H2.974C2.71509 5.1875 2.50525 5.39734 2.50525 5.65625C2.50525 5.91516 2.71509 6.125 2.974 6.125H7.80212C8.06094 6.125 8.27087 5.91516 8.27087 5.65625ZM2.974 7.0625C2.71509 7.0625 2.50525 7.27234 2.50525 7.53125C2.50525 7.79016 2.71509 8 2.974 8H5.4375C5.69641 8 5.90625 7.79016 5.90625 7.53125C5.90625 7.27234 5.69641 7.0625 5.4375 7.0625H2.974ZM11.3054 10.496C11.2889 10.5195 11.2324 10.5995 11.1974 10.6437C11.0403 10.8412 10.6729 11.3034 10.1615 11.7115C9.50592 12.2347 8.83127 12.5 8.15625 12.5C7.48123 12.5 6.80658 12.2347 6.15097 11.7115C5.63965 11.3034 5.27216 10.8411 5.11523 10.6437C5.08008 10.5995 5.02359 10.5194 5.00711 10.496C4.89349 10.3343 4.89349 10.1187 5.00711 9.95703C5.02359 9.93359 5.08008 9.85358 5.11523 9.80936C5.27216 9.61197 5.63965 9.14972 6.15097 8.74167C6.80658 8.21844 7.48123 7.95312 8.15625 7.95312C8.83127 7.95312 9.50592 8.21844 10.1615 8.74167C10.6729 9.14972 11.0403 9.61206 11.1973 9.80945C11.2324 9.85367 11.2889 9.93369 11.3054 9.95712C11.419 10.1188 11.419 10.3343 11.3054 10.496ZM10.3276 10.2266C9.58228 9.33987 8.85251 8.89062 8.15625 8.89062C7.46008 8.89062 6.73022 9.33978 5.98489 10.2266C6.73022 11.1133 7.45999 11.5625 8.15625 11.5625C8.85251 11.5625 9.58228 11.1133 10.3276 10.2266ZM8.17969 9.33594C7.68777 9.33594 7.28906 9.73465 7.28906 10.2266C7.28906 10.7185 7.68777 11.1172 8.17969 11.1172C8.6716 11.1172 9.07031 10.7185 9.07031 10.2266C9.07031 9.73465 8.6716 9.33594 8.17969 9.33594Z" fill="#686868"/>
</svg>
