<svg width="24" height="24" viewBox="0 0 24 24" fill="none" xmlns="http://www.w3.org/2000/svg">
<g clip-path="url(#clip0_3035_9073)">
<path d="M23.9372 9.2048C23.7792 8.71883 23.3482 8.37477 22.8402 8.32881L15.9121 7.69983L13.1741 1.28956C12.972 0.818609 12.512 0.514648 12 0.514648C11.4881 0.514648 11.0279 0.818609 10.827 1.28956L8.08902 7.69983L1.15982 8.32881C0.651881 8.37568 0.221759 8.71974 0.0628208 9.2048C-0.0952019 9.69077 0.0507355 10.2238 0.434897 10.5607L5.67198 15.1529L4.12783 21.9539C4.01485 22.454 4.20895 22.9711 4.62387 23.271C4.8469 23.4331 5.10893 23.514 5.37187 23.514C5.59783 23.514 5.82396 23.4539 6.02593 23.3331L12 19.761L17.973 23.3331C18.4112 23.5949 18.9622 23.5709 19.3762 23.271C19.7911 22.9711 19.9852 22.454 19.8722 21.9539L18.3281 15.1529L23.5652 10.5607C23.9491 10.2238 24.0953 9.69186 23.9372 9.2048Z" fill="#FFE414"/>
</g>
<defs>
<clipPath id="clip0_3035_9073">
<rect width="24" height="24" fill="white"/>
</clipPath>
</defs>
</svg>
