<svg width="32" height="32" viewBox="0 0 32 32" fill="none" xmlns="http://www.w3.org/2000/svg">
<g clip-path="url(#clip0_3035_9015)">
<path d="M28.1856 16.0624V29.4995C28.1856 30.9057 27.3044 31.9994 26.1794 31.9994H23.4358C22.3108 31.9994 21.4296 30.8995 21.4296 29.4995V16.0624C21.4296 14.6562 22.3108 13.5625 23.4358 13.5625H26.1794C27.2981 13.5625 28.1856 14.6625 28.1856 16.0624Z" fill="#FFE414"/>
<path d="M28.2286 8.17954C28.0412 8.31078 27.7974 8.31703 27.5974 8.19829L25.7225 7.07332C22.6351 12.1857 18.2789 16.998 9.8667 16.998C8.09176 16.998 6.13557 16.7855 3.97313 16.3105C3.66064 16.2418 3.46065 15.9355 3.52315 15.6168C3.58564 15.3293 3.84814 15.1356 4.14188 15.1606C4.66686 15.2043 16.8665 16.023 21.9913 4.74214L20.0726 3.81092C19.7852 3.67342 19.6602 3.32343 19.7976 3.03594C19.8601 2.9047 19.9664 2.8047 20.0976 2.74845L26.4662 0.0422842C26.7599 -0.082712 27.1037 0.0547838 27.2287 0.348525C27.2474 0.392274 27.2599 0.436022 27.2662 0.479771L28.4724 7.5983C28.5161 7.8233 28.4161 8.05454 28.2286 8.17954Z" fill="#FFE414"/>
<path d="M19.3795 20.998V29.4977C19.3795 30.9039 18.4983 31.9977 17.3733 31.9977H14.6234C13.4984 31.9977 12.6172 30.8977 12.6172 29.4977V20.998C12.6172 19.5918 13.4984 18.4981 14.6234 18.4981H17.367C18.4983 18.4918 19.3795 19.5918 19.3795 20.998Z" fill="#FFE414"/>
<path d="M10.7658 25.1111V29.4982C10.7658 30.8981 9.88462 31.998 8.75972 31.998H6.00997C4.88508 31.998 4.00391 30.8981 4.00391 29.4982V25.1111C4.00391 23.705 4.88508 22.6114 6.00997 22.6114H8.75347C9.88462 22.6051 10.7658 23.705 10.7658 25.1111Z" fill="#FFE414"/>
</g>
<defs>
<clipPath id="clip0_3035_9015">
<rect width="32" height="32" fill="white"/>
</clipPath>
</defs>
</svg>
